<svg version="1.0" xmlns="http://www.w3.org/2000/svg" width="1046.667" height="1706.667" fill="currentColor" viewBox="0 0 785 1280"><path d="M375.5 145.6c-41.9 6.4-77.2 24.3-98.8 50.1-17.4 21-30.2 46.2-35.2 69.8-5.8 27.3-.4 63.8 13.5 91.5 6.3 12.5 13.6 21.8 28.1 36.1 7.7 7.5 13.9 14.2 13.9 14.8 0 .6-3 3.1-6.7 5.4-7.8 5-13.4 10.9-16.4 17-1.8 3.7-2.9 4.6-8.2 6.6-16 6.1-25.6 12.9-30.3 21.3-2.7 5-2.9 6-2.9 16.3 0 11.9 1.1 15.3 7.2 22.5 7.5 9 27.2 18.2 52.2 24.4 8 2 14.6 3.7 14.7 3.9.5.6-3.6 100.8-4.6 112.7-2.6 30.6-11.4 61.2-24.7 86-6.4 11.9-10 16.7-24.3 31.6-13.1 13.8-19 22.3-21.7 31.4-2.2 7.6-2 19 .6 26.4 1.2 3.3 2.1 6.5 2.1 7.2 0 .7-4.3 4.3-9.6 7.9-15.9 11.1-32.5 23.8-40.3 30.9-16.2 14.6-28.8 31.6-34 46.1-3.4 9.4-5.6 22.8-4.7 28.4.5 3.5.1 4.3-5.4 11.2-7.3 9.1-15.1 23.9-18.2 34.5-3.3 11.4-3.3 33.3 0 44.9 5 17.5 15.2 34.5 32.7 54.6 24.8 28.4 37.9 39 64.4 52.4 96.6 48.5 250.6 48.5 347.2 0 26.5-13.4 39.6-24 64.4-52.4 17.5-20.1 27.7-37.1 32.7-54.6 3.3-11.6 3.3-33.5 0-44.9-3.1-10.6-10.9-25.4-18.2-34.5-5.5-6.9-5.9-7.7-5.4-11.2.9-5.6-1.3-19-4.7-28.4-1.6-4.5-5.6-12.2-8.8-17.1-12.5-19.3-29.4-34.7-65.5-59.9-5.3-3.6-9.6-7.2-9.6-7.9 0-.7.9-3.9 2.1-7.2 2.6-7.4 2.8-18.8.6-26.4-2.7-9.2-8.6-17.6-22.2-31.9-14.6-15.3-19.5-22.1-26.5-36.6-12.7-26.2-19.5-51.3-22-80.5-1-12.1-5.1-112.2-4.6-112.7.1-.2 6.7-1.9 14.7-3.9 25-6.2 44.7-15.4 52.2-24.4 6.1-7.2 7.2-10.6 7.2-22.5 0-10.4-.2-11.3-3-16.4-4.6-8.4-14.1-15-30.2-21.2-5.3-2-6.4-2.9-8.2-6.6-3-6.1-8.6-12-16.3-17-3.8-2.3-6.8-4.8-6.8-5.4 0-.6 6.5-7.5 14.3-15.2 18.6-18.4 27-30.9 34.1-50.7 11.5-31.8 12.5-62.4 3-91.5-7.7-23.9-26.9-53.5-44.3-68.2-18.8-16-45.2-28.6-72.3-34.4-9.1-2-39.6-3.4-47.3-2.3z"/></svg>
